<svg width="16" height="17" viewBox="0 0 16 17" fill="none" xmlns="http://www.w3.org/2000/svg">
<path d="M3.3987 11.0621H12.6013C12.9177 11.0621 13.1765 11.3209 13.1765 11.6373C13.1765 11.9536 12.9177 12.2124 12.6013 12.2124H3.3987C3.08236 12.2124 2.82353 11.9536 2.82353 11.6373C2.82353 11.3209 3.08236 11.0621 3.3987 11.0621ZM3.3987 7.03594H12.6013C12.9177 7.03594 13.1765 7.29477 13.1765 7.61111V9.3366C13.1765 9.65294 12.9177 9.91176 12.6013 9.91176H3.3987C3.08236 9.91176 2.82353 9.65294 2.82353 9.3366V7.61111C2.82353 7.29477 3.08236 7.03594 3.3987 7.03594ZM3.3987 4.73529H12.6013C12.9177 4.73529 13.1765 4.99411 13.1765 5.31045C13.1765 5.62679 12.9177 5.88562 12.6013 5.88562H3.3987C3.08236 5.88562 2.82353 5.62679 2.82353 5.31045C2.82353 4.99411 3.08236 4.73529 3.3987 4.73529Z" fill="#CA87FF"/>
</svg>
