<svg width="16" height="17" viewBox="0 0 16 17" xmlns="http://www.w3.org/2000/svg">
<path d="M4.26838 11.1029V5.75H4.21324L1.88235 6.59191V7.48162L3.2353 6.99632V11.1029H4.26838Z" />
<path d="M9.78677 11.1029V10.2831H7.4375L8.44485 9.21691C8.61887 9.03799 8.77696 8.86765 8.91912 8.70588C9.06128 8.54167 9.18383 8.38113 9.28677 8.22427C9.38726 8.0674 9.46446 7.90931 9.51838 7.75C9.57476 7.58824 9.60294 7.41912 9.60294 7.24265C9.60294 7.00981 9.56618 6.7978 9.49265 6.60662C9.41912 6.41299 9.3125 6.24755 9.1728 6.1103C9.03064 5.97304 8.85417 5.86642 8.64338 5.79044C8.43505 5.71446 8.19485 5.67647 7.9228 5.67647C7.63848 5.67647 7.37868 5.72304 7.14338 5.81618C6.91054 5.90686 6.71201 6.03186 6.5478 6.19118C6.38113 6.35049 6.25245 6.53677 6.16177 6.75C6.07108 6.96079 6.02574 7.18505 6.02574 7.4228H7.05147C7.05147 7.27819 7.06985 7.14951 7.10662 7.03677C7.14338 6.92402 7.19731 6.82966 7.26838 6.75368C7.33701 6.68015 7.4228 6.625 7.52574 6.58824C7.63113 6.54902 7.75245 6.52941 7.88971 6.52941C7.9951 6.52941 8.09069 6.54657 8.17647 6.58088C8.26471 6.6152 8.34069 6.66422 8.40441 6.72794C8.46569 6.79412 8.51348 6.87378 8.5478 6.96691C8.58211 7.06005 8.59927 7.16667 8.59927 7.28677C8.59927 7.36765 8.58579 7.45098 8.55883 7.53677C8.53432 7.62255 8.49387 7.71446 8.4375 7.8125C8.37868 7.91299 8.3027 8.02329 8.20956 8.14338C8.11642 8.26348 8.00245 8.39706 7.86765 8.54412L6.13603 10.4044V11.1029H9.78677Z" />
<path d="M11.8382 7.97794V8.77206H12.3934C12.5331 8.77206 12.6581 8.78799 12.7684 8.81985C12.8811 8.85172 12.9779 8.90074 13.0588 8.96691C13.1373 9.03309 13.1973 9.11765 13.239 9.22059C13.2806 9.32353 13.3015 9.4473 13.3015 9.59191C13.3015 9.70711 13.2831 9.81128 13.2463 9.90441C13.212 9.99755 13.1605 10.076 13.0919 10.1397C13.0208 10.2108 12.9326 10.2647 12.8272 10.3015C12.7218 10.3382 12.6029 10.3566 12.4706 10.3566C12.3529 10.3566 12.2451 10.3395 12.1471 10.3051C12.049 10.2684 11.9645 10.2181 11.8934 10.1544C11.8199 10.0931 11.7635 10.0196 11.7243 9.93382C11.6851 9.84559 11.6654 9.75 11.6654 9.64706H10.6434C10.6434 9.90686 10.6936 10.1324 10.7941 10.3235C10.8971 10.5147 11.0331 10.6728 11.2022 10.7978C11.3713 10.9252 11.5637 11.0208 11.7794 11.0846C11.9976 11.1458 12.2206 11.1765 12.4485 11.1765C12.7132 11.1765 12.9596 11.1422 13.1875 11.0735C13.4179 11.0025 13.6164 10.8995 13.7831 10.7647C13.9498 10.6324 14.0809 10.4681 14.1765 10.2721C14.2721 10.076 14.3199 9.85294 14.3199 9.60294C14.3199 9.46079 14.3027 9.32598 14.2684 9.19853C14.2341 9.07108 14.1814 8.95343 14.1103 8.84559C14.0392 8.7402 13.9485 8.64583 13.8382 8.5625C13.7304 8.47917 13.6017 8.41054 13.4522 8.35662C13.5797 8.29534 13.6924 8.22304 13.7904 8.13971C13.8885 8.05392 13.9706 7.96079 14.0368 7.8603C14.1029 7.7598 14.1532 7.65441 14.1875 7.54412C14.2218 7.43137 14.239 7.3174 14.239 7.20221C14.239 6.95221 14.1949 6.73284 14.1066 6.54412C14.0208 6.35294 13.8995 6.1924 13.7426 6.0625C13.5858 5.93505 13.3971 5.83946 13.1765 5.77574C12.9559 5.70956 12.7132 5.67647 12.4485 5.67647C12.2034 5.67647 11.9743 5.71201 11.761 5.78309C11.5502 5.85417 11.3664 5.95343 11.2096 6.08088C11.0527 6.21079 10.9289 6.3652 10.8382 6.54412C10.75 6.72304 10.7059 6.92157 10.7059 7.13971H11.7279C11.7279 7.04167 11.7476 6.95343 11.7868 6.875C11.826 6.79657 11.8799 6.72917 11.9485 6.6728C12.0147 6.61887 12.0919 6.57721 12.1801 6.5478C12.2708 6.51838 12.3676 6.50368 12.4706 6.50368C12.5956 6.50368 12.7047 6.52083 12.7978 6.55515C12.8934 6.58946 12.9718 6.63726 13.0331 6.69853C13.0944 6.76226 13.1397 6.83824 13.1691 6.92647C13.201 7.01226 13.2169 7.10784 13.2169 7.21324C13.2169 7.32108 13.201 7.42157 13.1691 7.51471C13.1397 7.60539 13.0944 7.6826 13.0331 7.74632C12.9669 7.81985 12.8799 7.87745 12.7721 7.91912C12.6667 7.95833 12.5404 7.97794 12.3934 7.97794H11.8382Z" />
</svg>
