<svg width="16" height="16" viewBox="0 0 16 16" fill="none" xmlns="http://www.w3.org/2000/svg">
<path d="M7.50433 4.27146L4.04753 5.71074C4.00493 5.72846 3.96857 5.75857 3.94312 5.79721C3.91766 5.83584 3.90426 5.88123 3.90464 5.92757C3.90502 5.97391 3.91916 6.01907 3.94525 6.05728C3.97133 6.09549 4.00818 6.12499 4.05106 6.14201L7.52198 7.52554C7.82688 7.64719 8.16649 7.64719 8.47139 7.52554L11.9423 6.14201C11.9852 6.12499 12.022 6.09549 12.0481 6.05728C12.0742 6.01907 12.0883 5.97391 12.0887 5.92757C12.0891 5.88123 12.0757 5.83584 12.0503 5.79721C12.0248 5.75857 11.9884 5.72846 11.9458 5.71074L8.48904 4.27146C8.17378 4.14023 7.81958 4.14023 7.50433 4.27146Z" fill="#FEBF10"/>
<path d="M8.30249 8.28116V11.7369C8.30244 11.775 8.31166 11.8124 8.32934 11.846C8.34703 11.8796 8.37264 11.9084 8.40393 11.9297C8.43523 11.9511 8.47126 11.9644 8.50886 11.9685C8.54646 11.9726 8.5845 11.9674 8.61963 11.9533L12.4874 10.4446C12.5305 10.4274 12.5675 10.3976 12.5935 10.359C12.6196 10.3204 12.6335 10.2749 12.6336 10.2282V6.77195C12.6335 6.73397 12.6242 6.69659 12.6065 6.66304C12.5888 6.6295 12.5632 6.60082 12.5319 6.57949C12.5007 6.55816 12.4647 6.54483 12.4271 6.54066C12.3896 6.53648 12.3516 6.5416 12.3164 6.55555L8.44871 8.06476C8.40552 8.08188 8.36847 8.11168 8.34238 8.15029C8.3163 8.18889 8.3024 8.2345 8.30249 8.28116Z" fill="#48B2E5"/>
<path d="M7.4015 8.45957L6.25344 9.01704L6.13697 9.07329L3.7168 10.2389C3.56554 10.3134 3.36688 10.2009 3.36688 10.0296V6.78616C3.36795 6.75643 3.37509 6.72723 3.38783 6.70039C3.40058 6.67354 3.41868 6.6496 3.441 6.63007C3.45841 6.61276 3.47808 6.59793 3.49949 6.58598C3.53124 6.56777 3.56661 6.55687 3.60305 6.55407C3.6395 6.55126 3.67611 6.55662 3.71024 6.56976L7.38487 8.03285C7.42681 8.0492 7.46311 8.07746 7.48936 8.11418C7.51561 8.15091 7.53067 8.19451 7.5327 8.23968C7.53473 8.28485 7.52364 8.32964 7.5008 8.36859C7.47795 8.40754 7.44433 8.43898 7.40403 8.45906" fill="#ED334A"/>
<path d="M7.4015 8.45955L6.25344 9.01702L3.43848 6.63056C3.45588 6.61325 3.47556 6.59842 3.49696 6.58646C3.52871 6.56826 3.56408 6.55736 3.60053 6.55456C3.63697 6.55175 3.67358 6.55711 3.70772 6.57025L7.38234 8.03334C7.42428 8.04969 7.46059 8.07795 7.48684 8.11467C7.51309 8.15139 7.52814 8.195 7.53017 8.24017C7.5322 8.28534 7.52112 8.33013 7.49828 8.36908C7.47543 8.40803 7.44181 8.43947 7.4015 8.45955Z" fill="#010101" fill-opacity="0.25"/>
</svg>
