<svg width="16" height="17" viewBox="0 0 16 17" xmlns="http://www.w3.org/2000/svg">
<path d="M8.0649 4.26475C8.02818 4.26562 7.99158 4.26913 7.95537 4.27525H5.00346H4.61938C4.40736 4.27525 4.23529 4.44732 4.23529 4.65933V5.81159C4.23529 6.02361 4.40736 6.19568 4.61938 6.19568H5.00346C5.21548 6.19568 5.38755 6.02361 5.38755 5.81159V5.42751H7.30798V11.5729H6.92389C6.71188 11.5729 6.53981 11.745 6.53981 11.957V12.3411C6.53981 12.5531 6.71188 12.7251 6.92389 12.7251H7.95162C8.03409 12.7387 8.11821 12.7387 8.20068 12.7251H9.22841C9.44042 12.7251 9.61249 12.5531 9.61249 12.3411V11.957C9.61249 11.745 9.44042 11.5729 9.22841 11.5729H8.84432V5.42751H10.7648V5.81159C10.7648 6.02361 10.9368 6.19568 11.1488 6.19568H11.5329C11.7449 6.19568 11.917 6.02361 11.917 5.81159V4.65933C11.917 4.44732 11.7449 4.27525 11.5329 4.27525H11.1488H8.19918C8.15481 4.26782 8.10988 4.26431 8.0649 4.26475Z" />
</svg>
