<svg width="16" height="17" viewBox="0 0 16 17" xmlns="http://www.w3.org/2000/svg">
<path d="M5.8569 3.79412C5.8362 3.79457 5.81556 3.79652 5.79514 3.79996H4.15442C3.68737 3.79996 3.29985 4.18748 3.29985 4.65454V6.29191C3.29222 6.33806 3.29222 6.38514 3.29985 6.43128V8.42835C3.29222 8.4745 3.29222 8.52158 3.29985 8.56772V10.5648C3.29222 10.6109 3.29222 10.658 3.29985 10.7042V12.3457C3.29985 12.8128 3.68737 13.2003 4.15442 13.2003H5.7918C5.83795 13.2079 5.88503 13.2079 5.93117 13.2003H7.92824C7.97438 13.2079 8.02147 13.2079 8.06761 13.2003H10.0647C10.1108 13.2079 10.1579 13.2079 10.204 13.2003H11.8456C12.3126 13.2003 12.7002 12.8128 12.7002 12.3457V10.7083C12.7078 10.6622 12.7078 10.6151 12.7002 10.569V8.57189C12.7078 8.52575 12.7078 8.47867 12.7002 8.43253V6.43546C12.7078 6.38931 12.7078 6.34223 12.7002 6.29609V4.65454C12.7002 4.18748 12.3126 3.79996 11.8456 3.79996H10.2024C10.1784 3.79595 10.1541 3.794 10.1298 3.79412C10.1091 3.79457 10.0884 3.79652 10.068 3.79996H8.06594C8.04195 3.79595 8.01766 3.794 7.99333 3.79412C7.97263 3.79457 7.95199 3.79652 7.93158 3.79996H5.9295C5.90551 3.79595 5.88122 3.794 5.8569 3.79412ZM4.15442 4.65454H5.43629V5.9364H4.15442V4.65454ZM6.29086 4.65454H7.57272V5.9364H6.29086V4.65454ZM8.4273 4.65454H9.70916V5.9364H8.4273V4.65454ZM10.5637 4.65454H11.8456V5.9364H10.5637V4.65454ZM4.15442 6.79097H5.43629V8.07284H4.15442V6.79097ZM6.29086 6.79097H7.57272V8.07284H6.29086V6.79097ZM8.4273 6.79097H9.70916V8.07284H8.4273V6.79097ZM10.5637 6.79097H11.8456V8.07284H10.5637V6.79097ZM4.15442 8.92741H5.43629V10.2093H4.15442V8.92741ZM6.29086 8.92741H7.57272V10.2093H6.29086V8.92741ZM8.4273 8.92741H9.70916V10.2093H8.4273V8.92741ZM10.5637 8.92741H11.8456V10.2093H10.5637V8.92741ZM4.15442 11.0638H5.43629V12.3457H4.15442V11.0638ZM6.29086 11.0638H7.57272V12.3457H6.29086V11.0638ZM8.4273 11.0638H9.70916V12.3457H8.4273V11.0638ZM10.5637 11.0638H11.8456V12.3457H10.5637V11.0638Z" />
</svg>
